// Created by Crowbar 0.74
version 1
nodes
  0 "ValveBiped.Bip01_Pelvis" -1
  1 "ValveBiped.Bip01_Spine" 0
  2 "ValveBiped.Bip01_Spine1" 1
  3 "ValveBiped.Bip01_Spine2" 2
  4 "ValveBiped.Bip01_Spine4" 3
  5 "ValveBiped.Bip01_L_Clavicle" 4
  6 "ValveBiped.Bip01_L_UpperArm" 5
  7 "ValveBiped.Bip01_L_Forearm" 6
  8 "ValveBiped.Bip01_R_Clavicle" 4
  9 "ValveBiped.Bip01_R_UpperArm" 8
  10 "ValveBiped.Bip01_R_Forearm" 9
  11 "ValveBiped.Bip01_R_Hand" 10
  12 "ValveBiped.Bip01_R_Thigh" 0
  13 "ValveBiped.Bip01_Neck1" 4
  14 "ValveBiped.Bip01_Head1" 13
  15 "ValveBiped.Bip01_L_Hand" 7
  16 "ValveBiped.Bip01_L_Thigh" 0
  17 "ValveBiped.Bip01_L_Calf" 16
  18 "ValveBiped.Bip01_R_Calf" 12
  19 "ValveBiped.Bip01_L_Foot" 17
  20 "ValveBiped.Bip01_L_Finger3" 15
  21 "ValveBiped.Bip01_L_Finger31" 20
  22 "ValveBiped.Bip01_L_Finger2" 15
  23 "ValveBiped.Bip01_R_Finger0" 11
  24 "ValveBiped.Bip01_L_Finger4" 15
  25 "ValveBiped.Bip01_L_Finger41" 24
  26 "ValveBiped.Bip01_R_Finger1" 11
  27 "ValveBiped.Bip01_R_Finger2" 11
  28 "ValveBiped.Bip01_L_Finger0" 15
  29 "ValveBiped.Bip01_R_Finger3" 11
  30 "ValveBiped.Bip01_R_Finger31" 29
  31 "ValveBiped.Bip01_R_Foot" 18
  32 "ValveBiped.Bip01_R_Toe0" 31
  33 "ValveBiped.Bip01_L_Toe0" 19
  34 "ValveBiped.Bip01_L_Finger1" 15
  35 "ValveBiped.Bip01_R_Finger4" 11
  36 "ValveBiped.Bip01_R_Finger41" 35
  37 "ValveBiped.Bip01_R_Finger42" 36
  38 "ValveBiped.Bip01_L_Finger32" 21
  39 "ValveBiped.Bip01_L_Finger42" 25
  40 "ValveBiped.Bip01_R_Finger32" 30
  41 "ValveBiped.Bip01_R_Finger11" 26
  42 "ValveBiped.Bip01_R_Finger21" 27
  43 "ValveBiped.Bip01_R_Finger01" 23
  44 "ValveBiped.Bip01_L_Finger11" 34
  45 "ValveBiped.Bip01_L_Finger01" 28
  46 "ValveBiped.Bip01_L_Finger21" 22
  47 "ValveBiped.Bip01_R_Finger22" 42
  48 "ValveBiped.Bip01_R_Finger02" 43
  49 "ValveBiped.Bip01_R_Finger12" 41
  50 "ValveBiped.Bip01_L_Finger22" 46
  51 "ValveBiped.Bip01_L_Finger02" 45
  52 "ValveBiped.Bip01_L_Finger12" 44
  53 "ValveBiped.attachment_bandage_legL" 17
  54 "ValveBiped.attachment_bandage_armL" 7
  55 "ValveBiped.attachment_armL_T" 7
  56 "ValveBiped.attachment_armR_T" 10
  57 "ValveBiped.L_weapon_bone" 15
  58 "ValveBiped.weapon_bone" 11
  59 "ValveBiped.weapon_bone_Clip" 58
  60 "ValveBiped.weapon_bone_extra" 58
  61 "ValveBiped.forward" 14
  62 "ValveBiped.Bip01_L_Knee" 16
  63 "ValveBiped.Bip01_R_Knee" 12
  64 "ValveBiped.Bip01_L_Ulna" 7
  65 "ValveBiped.Bip01_L_Wrist" 7
  66 "ValveBiped.Bip01_L_Elbow" 6
  67 "ValveBiped.Bip01_R_Wrist" 10
  68 "ValveBiped.Bip01_R_Ulna" 10
  69 "ValveBiped.Bip01_R_Elbow" 9
  70 "dyn_hair_bangs_01" 14
  71 "dyn_hair_bangs_02" 14
  72 "dyn_hair_bangs_03" 14
  73 "dyn_hair_bangs_04" 14
  74 "dyn_hair_bangs_05" 14
  75 "dyn_hair_bangs_06" 14
  76 "dyn_hair_strap_bk_l_01" 14
  77 "dyn_hair_strap_bk_l_02" 76
  78 "dyn_hair_strap_bk_l_03" 77
  79 "dyn_hair_strap_bk_l_04" 78
  80 "dyn_hair_strap_bk_l_05" 79
  81 "dyn_hair_strap_bk_l_06" 80
  82 "dyn_hair_strap_fr_l_01" 14
  83 "dyn_hair_strap_fr_l_02" 82
  84 "dyn_hair_strap_fr_l_03" 83
  85 "dyn_hair_strap_fr_l_04" 84
  86 "dyn_hair_strap_fr_l_05" 85
  87 "dyn_hair_strap_fr_l_06" 86
  88 "dyn_hair_strap_bk_r_01" 14
  89 "dyn_hair_strap_bk_r_02" 88
  90 "dyn_hair_strap_bk_r_03" 89
  91 "dyn_hair_strap_bk_r_04" 90
  92 "dyn_hair_strap_bk_r_05" 91
  93 "dyn_hair_strap_bk_r_06" 92
  94 "dyn_hair_strap_fr_r_01" 14
  95 "dyn_hair_strap_fr_r_02" 94
  96 "dyn_hair_strap_fr_r_03" 95
  97 "dyn_hair_strap_fr_r_04" 96
  98 "dyn_hair_strap_fr_r_05" 97
  99 "dyn_hair_strap_fr_r_06" 98
  100 "dyn_shirt_fr" 3
  101 "dyn_shirt_fr_l" 3
  102 "dyn_shirt_l" 3
  103 "dyn_shirt_bk_l" 3
  104 "dyn_shirt_bk" 3
  105 "dyn_shirt_fr_r" 3
  106 "dyn_shirt_r" 3
  107 "dyn_shirt_bk_r" 3
end
skeleton
  time 0
    0 0.000000 0.000000 0.000000 0.000000 0.000000 -1.570796
end
