// Created by Crowbar 0.74
version 1
nodes
  0 "ValveBiped.Bip01_Pelvis" -1
  1 "ValveBiped.Bip01_Spine" 0
  2 "ValveBiped.Bip01_Spine1" 1
  3 "ValveBiped.Bip01_Spine2" 2
  4 "ValveBiped.Bip01_Spine4" 3
  5 "ValveBiped.Bip01_L_Clavicle" 4
  6 "ValveBiped.Bip01_L_UpperArm" 5
  7 "ValveBiped.Bip01_L_Forearm" 6
  8 "ValveBiped.Bip01_R_Clavicle" 4
  9 "ValveBiped.Bip01_R_UpperArm" 8
  10 "ValveBiped.Bip01_R_Forearm" 9
  11 "ValveBiped.Bip01_R_Hand" 10
  12 "ValveBiped.Bip01_R_Thigh" 0
  13 "ValveBiped.Bip01_Neck1" 4
  14 "ValveBiped.Bip01_Head1" 13
  15 "ValveBiped.Bip01_L_Hand" 7
  16 "ValveBiped.Bip01_L_Thigh" 0
  17 "ValveBiped.Bip01_L_Calf" 16
  18 "ValveBiped.Bip01_R_Calf" 12
  19 "ValveBiped.Bip01_L_Foot" 17
  20 "ValveBiped.Bip01_L_Finger3" 15
  21 "ValveBiped.Bip01_L_Finger31" 20
  22 "ValveBiped.Bip01_L_Finger2" 15
  23 "ValveBiped.Bip01_R_Finger0" 11
  24 "ValveBiped.Bip01_L_Finger4" 15
  25 "ValveBiped.Bip01_L_Finger41" 24
  26 "ValveBiped.Bip01_R_Finger1" 11
  27 "ValveBiped.Bip01_R_Finger2" 11
  28 "ValveBiped.Bip01_L_Finger0" 15
  29 "ValveBiped.Bip01_R_Finger3" 11
  30 "ValveBiped.Bip01_R_Finger31" 29
  31 "ValveBiped.Bip01_R_Foot" 18
  32 "ValveBiped.Bip01_R_Toe0" 31
  33 "ValveBiped.Bip01_L_Toe0" 19
  34 "ValveBiped.Bip01_L_Finger1" 15
  35 "ValveBiped.Bip01_R_Finger4" 11
  36 "ValveBiped.Bip01_R_Finger41" 35
  37 "ValveBiped.Bip01_R_Finger42" 36
  38 "ValveBiped.Bip01_L_Finger32" 21
  39 "ValveBiped.Bip01_L_Finger42" 25
  40 "ValveBiped.Bip01_R_Finger32" 30
  41 "ValveBiped.Bip01_R_Finger11" 26
  42 "ValveBiped.Bip01_R_Finger21" 27
  43 "ValveBiped.Bip01_R_Finger01" 23
  44 "ValveBiped.Bip01_L_Finger11" 34
  45 "ValveBiped.Bip01_L_Finger01" 28
  46 "ValveBiped.Bip01_L_Finger21" 22
  47 "ValveBiped.Bip01_R_Finger22" 42
  48 "ValveBiped.Bip01_R_Finger02" 43
  49 "ValveBiped.Bip01_R_Finger12" 41
  50 "ValveBiped.Bip01_L_Finger22" 46
  51 "ValveBiped.Bip01_L_Finger02" 45
  52 "ValveBiped.Bip01_L_Finger12" 44
  53 "ValveBiped.attachment_bandage_legL" 17
  54 "ValveBiped.attachment_bandage_armL" 7
  55 "ValveBiped.attachment_armL_T" 7
  56 "ValveBiped.attachment_armR_T" 10
  57 "ValveBiped.L_weapon_bone" 15
  58 "ValveBiped.weapon_bone" 11
  59 "ValveBiped.weapon_bone_Clip" 58
  60 "ValveBiped.weapon_bone_extra" 58
  61 "ValveBiped.forward" 14
  62 "ValveBiped.Bip01_L_Knee" 16
  63 "ValveBiped.Bip01_R_Knee" 12
  64 "ValveBiped.Bip01_L_Ulna" 7
  65 "ValveBiped.Bip01_L_Wrist" 7
  66 "ValveBiped.Bip01_L_Elbow" 6
  67 "ValveBiped.Bip01_R_Wrist" 10
  68 "ValveBiped.Bip01_R_Ulna" 10
  69 "ValveBiped.Bip01_R_Elbow" 9
  70 "dyn_hair_bangs_01" 14
  71 "dyn_hair_bangs_02" 14
  72 "dyn_hair_bangs_03" 14
  73 "dyn_hair_bangs_04" 14
  74 "dyn_hair_bangs_05" 14
  75 "dyn_hair_bangs_06" 14
  76 "dyn_hair_strap_bk_l_01" 14
  77 "dyn_hair_strap_bk_l_02" 76
  78 "dyn_hair_strap_bk_l_03" 77
  79 "dyn_hair_strap_bk_l_04" 78
  80 "dyn_hair_strap_bk_l_05" 79
  81 "dyn_hair_strap_bk_l_06" 80
  82 "dyn_hair_strap_fr_l_01" 14
  83 "dyn_hair_strap_fr_l_02" 82
  84 "dyn_hair_strap_fr_l_03" 83
  85 "dyn_hair_strap_fr_l_04" 84
  86 "dyn_hair_strap_fr_l_05" 85
  87 "dyn_hair_strap_fr_l_06" 86
  88 "dyn_hair_strap_bk_r_01" 14
  89 "dyn_hair_strap_bk_r_02" 88
  90 "dyn_hair_strap_bk_r_03" 89
  91 "dyn_hair_strap_bk_r_04" 90
  92 "dyn_hair_strap_bk_r_05" 91
  93 "dyn_hair_strap_bk_r_06" 92
  94 "dyn_hair_strap_fr_r_01" 14
  95 "dyn_hair_strap_fr_r_02" 94
  96 "dyn_hair_strap_fr_r_03" 95
  97 "dyn_hair_strap_fr_r_04" 96
  98 "dyn_hair_strap_fr_r_05" 97
  99 "dyn_hair_strap_fr_r_06" 98
  100 "dyn_shirt_fr" 3
  101 "dyn_shirt_fr_l" 3
  102 "dyn_shirt_l" 3
  103 "dyn_shirt_bk_l" 3
  104 "dyn_shirt_bk" 3
  105 "dyn_shirt_fr_r" 3
  106 "dyn_shirt_r" 3
  107 "dyn_shirt_bk_r" 3
end
skeleton
  time 0
    0 0.000000 0.493164 36.562500 1.570788 0.000007 -0.000007
    1 0.000000 3.861328 -0.017120 1.570796 0.083190 1.570796
    2 3.814453 0.000000 0.000000 0.000000 0.000000 -0.171962
    3 3.531250 0.000000 0.000000 0.000000 0.000000 -0.015832
    4 5.441406 0.000001 0.000000 0.000000 0.000001 0.495170
    5 3.882446 1.393293 1.432500 0.877508 -1.114834 -2.566259
    6 5.259528 0.000000 -0.000001 -1.384885 -0.344357 -0.770830
    7 10.416565 0.000001 0.000004 0.000000 0.000000 -0.125707
    8 3.882442 1.393297 -1.432500 -0.952658 1.114834 -2.566258
    9 5.259527 0.000008 0.000000 1.443295 0.396159 -0.749681
    10 10.416567 0.000000 0.000000 0.000000 0.000000 -0.125707
    11 9.955212 -0.000003 0.000011 -1.376663 -0.113578 0.124313
    12 -3.462504 0.000000 0.000000 -1.471122 0.058055 -1.622309
    13 5.109375 0.000000 0.000000 3.141590 0.000000 0.250603
    14 4.257813 0.000002 0.000000 0.000000 -0.000001 0.463823
    15 9.955227 -0.000006 -0.000027 1.373047 0.113574 0.124314
    16 3.462504 0.000000 0.000000 -1.670471 0.058055 -1.519283
    17 17.520250 0.000000 0.000000 0.000000 0.000000 0.000000
    18 17.520245 0.000000 0.000000 0.000000 0.000000 0.000000
    19 15.997700 0.000000 0.000000 -0.077030 -0.068757 -1.299215
    20 3.157032 0.193974 -0.522127 0.197883 0.103919 -0.292835
    21 1.725855 -0.000008 0.000000 -0.051969 -0.088374 -0.532552
    22 3.410789 0.104385 0.391149 0.187279 0.067956 -0.258153
    23 1.020031 -1.225883 -0.942159 -1.690053 0.345004 -0.122821
    24 2.862398 0.005165 -1.410986 0.204944 0.143350 -0.226721
    25 1.442410 0.000000 0.000000 0.011404 0.016672 -0.599950
    26 3.518330 -0.146652 -1.355857 -0.177072 -0.034229 -0.204090
    27 3.410809 0.105804 -0.390767 -0.183663 -0.067958 -0.258150
    28 1.020010 -1.229275 0.937716 1.693867 -0.344560 -0.124114
    29 3.157049 0.192085 0.522823 -0.194266 -0.103921 -0.292831
    30 1.725857 0.000000 0.000000 0.051969 0.088374 -0.532552
    31 15.997695 0.000000 0.000000 0.088733 0.068757 -1.299215
    32 5.676029 0.000000 0.000000 -0.111841 0.023845 -0.336656
    33 5.676030 0.000000 0.000000 0.020295 -0.027709 -0.336371
    34 3.518305 -0.151562 1.355317 0.180689 0.034228 -0.204094
    35 2.862411 0.000069 1.410995 -0.201327 -0.143351 -0.226717
    36 1.442417 0.000004 0.000000 -0.011404 -0.016672 -0.599950
    37 0.772266 0.000000 0.000000 0.054473 0.175380 -0.302889
    38 0.922668 -0.000001 0.000000 0.002415 0.009757 -0.242679
    39 0.772270 -0.000002 0.000000 -0.054473 -0.175380 -0.302889
    40 0.922665 -0.000001 0.000000 -0.002415 -0.009757 -0.242679
    41 1.624470 0.000008 0.000000 -0.051327 -0.064037 -0.676424
    42 2.053883 0.000000 0.000000 0.042077 0.053977 -0.662652
    43 1.753672 0.000001 0.000000 0.000000 0.188119 -0.185284
    44 1.624468 0.000000 0.000000 0.051327 0.064037 -0.676424
    45 1.753672 0.000000 0.000000 0.000000 -0.188119 -0.185284
    46 2.053877 0.000000 0.000000 -0.042077 -0.053977 -0.662652
    47 1.100883 -0.000002 0.000000 -0.001897 -0.012019 -0.156562
    48 1.168865 0.000000 -0.000004 0.000000 0.040646 0.196333
    49 0.949944 0.000002 0.000000 -0.001277 -0.038560 -0.033101
    50 1.100872 -0.000002 0.000000 0.001897 0.012019 -0.156562
    51 1.168867 0.000000 0.000008 0.000000 -0.040646 0.196333
    52 0.949947 -0.000001 0.000000 0.001277 0.038560 -0.033101
    53 7.023273 -6.880002 4.339547 2.620672 -1.456011 -1.105365
    54 3.813801 -3.870654 0.998558 1.570796 -1.069638 0.199892
    55 0.000000 -0.000007 -0.000027 1.373047 0.113574 0.124314
    56 0.000002 -0.000007 -0.000031 1.373047 0.113574 0.124314
    57 3.348997 -1.371002 0.724998 1.977842 -0.088017 1.557794
    58 2.856895 -1.536198 -0.973800 -1.501147 -0.272558 -1.578261
    59 0.000000 0.000000 9.999996 0.000000 0.000000 0.000000
    60 0.018890 0.665159 9.395882 0.000000 0.000000 0.000000
    61 1.999992 -3.000000 0.000000 -1.570796 0.000000 -1.326450
    62 17.511831 0.000000 0.000001 0.000000 0.000000 0.025253
    63 17.511827 0.000000 0.000000 0.000000 0.000000 0.025250
    64 5.351955 0.000000 0.000008 -0.126310 0.000000 0.000000
    65 10.703916 0.000003 0.000000 -0.238428 0.000000 0.000000
    66 10.622517 0.000002 0.000000 0.000000 0.000000 -0.161658
    67 10.703920 0.000001 -0.000004 0.242666 0.000000 0.000000
    68 5.351967 0.000001 0.000004 0.128616 0.000000 0.000000
    69 10.622509 0.000000 0.000000 0.000000 0.000000 -0.161657
    70 6.542702 -3.138619 -0.895109 -2.757489 0.670361 -3.025038
    71 6.555031 -3.255052 -0.507022 -1.921020 0.618427 -2.301585
    72 6.705544 -3.279106 -0.065398 -1.754147 0.162451 -2.474002
    73 6.626083 -3.270710 0.172545 -1.539075 -0.305492 -2.435733
    74 6.653976 -3.214913 0.408571 -1.286976 -0.553915 -2.575075
    75 6.579002 -3.260934 0.753884 -0.495113 -0.806181 -2.967121
    76 5.379463 1.359751 -4.068706 2.963808 0.292578 2.552074
    77 1.899147 -0.000008 -0.000002 0.000000 0.000001 0.000000
    78 1.899155 -0.000011 0.000011 0.000000 0.000000 -0.000001
    79 1.778336 0.000004 0.000008 0.000000 0.000000 0.000000
    80 1.484890 0.000004 0.000006 0.000000 0.000000 0.000000
    81 1.484890 0.000004 0.000008 0.000000 0.000000 0.000000
    82 5.344971 1.304967 -4.152735 3.010493 0.160723 2.777818
    83 1.844238 0.000025 -0.000004 0.000006 -0.000001 0.000036
    84 1.844231 -0.000046 0.000002 -0.000006 0.000002 -0.000037
    85 1.723396 0.000027 0.000004 0.000000 0.000000 0.000000
    86 1.429981 0.000021 0.000004 0.000003 -0.000001 0.000018
    87 1.429981 -0.000013 0.000004 0.000000 0.000000 0.000000
    88 5.379402 1.359731 4.068733 0.177777 -0.292572 2.552077
    89 1.899246 0.000065 -0.000015 0.000000 0.000001 0.000000
    90 1.898895 -0.000156 0.000122 0.000000 0.000000 0.000000
    91 1.778545 0.000179 -0.000076 0.000000 0.000002 0.000001
    92 1.484745 -0.000118 0.000061 0.000002 -0.000009 -0.000001
    93 1.485096 0.000114 -0.000051 0.000000 0.000002 0.000000
    94 5.344757 1.304946 4.152762 0.131098 -0.160750 2.777815
    95 1.844147 -0.000046 -0.000051 0.000000 -0.000001 0.000000
    96 1.844154 -0.000051 0.000004 -0.000002 0.000008 0.000000
    97 1.723389 -0.000034 -0.000059 0.000002 -0.000009 0.000000
    98 1.429787 -0.000090 -0.000011 -0.000005 0.000039 -0.000018
    99 1.430183 0.000105 0.000002 0.000000 0.000004 0.000000
    100 1.053982 6.461875 -0.000002 1.570796 -0.000001 -2.870607
    101 1.319767 5.505195 3.414021 0.979847 -0.000001 -2.870608
    102 2.433929 1.494850 5.525152 -0.153741 0.000005 -2.870608
    103 3.255917 -1.463856 2.975232 -1.232893 0.000000 -2.870608
    104 3.367542 -1.865640 -0.000005 -1.570796 0.000000 -2.870607
    105 1.319702 5.505181 -3.414023 2.161746 0.000000 -2.870607
    106 2.433857 1.494835 -5.525157 -2.987854 0.000010 -2.870605
    107 3.255852 -1.463873 -2.975239 -1.908698 -0.000001 -2.870607
  time 1
    0 0.000000 0.493164 36.562500 1.570788 0.000007 -0.000007
    1 0.000000 3.861328 -0.017120 1.570796 0.083190 1.570796
    2 3.814453 0.000000 0.000000 0.000000 0.000000 -0.171962
    3 3.531250 0.000000 0.000000 0.000000 0.000000 -0.015832
    4 5.441406 0.000001 0.000000 0.000000 0.000001 0.495170
    5 3.882446 1.393293 1.432500 0.877508 -1.114834 -2.566259
    6 5.259528 0.000000 -0.000001 -1.384885 -0.344357 -0.770830
    7 10.416565 0.000001 0.000004 0.000000 0.000000 -0.125707
    8 3.882442 1.393297 -1.432500 -0.952658 1.114834 -2.566258
    9 5.259527 0.000008 0.000000 1.443295 0.396159 -0.749681
    10 10.416567 0.000000 0.000000 0.000000 0.000000 -0.125707
    11 9.955212 -0.000003 0.000011 -1.376663 -0.113578 0.124313
    12 -3.462504 0.000000 0.000000 -1.471122 0.058055 -1.622309
    13 5.109375 0.000000 0.000000 3.141590 0.000000 0.250603
    14 4.257813 0.000002 0.000000 0.000000 -0.000001 0.463823
    15 9.955227 -0.000006 -0.000027 1.373047 0.113574 0.124314
    16 3.462504 0.000000 0.000000 -1.670471 0.058055 -1.519283
    17 17.520250 0.000000 0.000000 0.000000 0.000000 0.000000
    18 17.520245 0.000000 0.000000 0.000000 0.000000 0.000000
    19 15.997700 0.000000 0.000000 -0.077030 -0.068757 -1.299215
    20 3.157032 0.193974 -0.522127 0.197883 0.103919 -0.292835
    21 1.725855 -0.000008 0.000000 -0.051969 -0.088374 -0.532552
    22 3.410789 0.104385 0.391149 0.187279 0.067956 -0.258153
    23 1.020031 -1.225883 -0.942159 -1.690053 0.345004 -0.122821
    24 2.862398 0.005165 -1.410986 0.204944 0.143350 -0.226721
    25 1.442410 0.000000 0.000000 0.011404 0.016672 -0.599950
    26 3.518330 -0.146652 -1.355857 -0.177072 -0.034229 -0.204090
    27 3.410809 0.105804 -0.390767 -0.183663 -0.067958 -0.258150
    28 1.020010 -1.229275 0.937716 1.693867 -0.344560 -0.124114
    29 3.157049 0.192085 0.522823 -0.194266 -0.103921 -0.292831
    30 1.725857 0.000000 0.000000 0.051969 0.088374 -0.532552
    31 15.997695 0.000000 0.000000 0.088733 0.068757 -1.299215
    32 5.676029 0.000000 0.000000 -0.111841 0.023845 -0.336656
    33 5.676030 0.000000 0.000000 0.020295 -0.027709 -0.336371
    34 3.518305 -0.151562 1.355317 0.180689 0.034228 -0.204094
    35 2.862411 0.000069 1.410995 -0.201327 -0.143351 -0.226717
    36 1.442417 0.000004 0.000000 -0.011404 -0.016672 -0.599950
    37 0.772266 0.000000 0.000000 0.054473 0.175380 -0.302889
    38 0.922668 -0.000001 0.000000 0.002415 0.009757 -0.242679
    39 0.772270 -0.000002 0.000000 -0.054473 -0.175380 -0.302889
    40 0.922665 -0.000001 0.000000 -0.002415 -0.009757 -0.242679
    41 1.624470 0.000008 0.000000 -0.051327 -0.064037 -0.676424
    42 2.053883 0.000000 0.000000 0.042077 0.053977 -0.662652
    43 1.753672 0.000001 0.000000 0.000000 0.188119 -0.185284
    44 1.624468 0.000000 0.000000 0.051327 0.064037 -0.676424
    45 1.753672 0.000000 0.000000 0.000000 -0.188119 -0.185284
    46 2.053877 0.000000 0.000000 -0.042077 -0.053977 -0.662652
    47 1.100883 -0.000002 0.000000 -0.001897 -0.012019 -0.156562
    48 1.168865 0.000000 -0.000004 0.000000 0.040646 0.196333
    49 0.949944 0.000002 0.000000 -0.001277 -0.038560 -0.033101
    50 1.100872 -0.000002 0.000000 0.001897 0.012019 -0.156562
    51 1.168867 0.000000 0.000008 0.000000 -0.040646 0.196333
    52 0.949947 -0.000001 0.000000 0.001277 0.038560 -0.033101
    53 7.023273 -6.880002 4.339547 2.620672 -1.456011 -1.105365
    54 3.813801 -3.870654 0.998558 1.570796 -1.069638 0.199892
    55 0.000000 -0.000007 -0.000027 1.373047 0.113574 0.124314
    56 0.000002 -0.000007 -0.000031 1.373047 0.113574 0.124314
    57 3.348997 -1.371002 0.724998 1.977842 -0.088017 1.557794
    58 2.856895 -1.536198 -0.973800 -1.501147 -0.272558 -1.578261
    59 0.000000 0.000000 9.999996 0.000000 0.000000 0.000000
    60 0.018890 0.665159 9.395882 0.000000 0.000000 0.000000
    61 1.999992 -3.000000 0.000000 -1.570796 0.000000 -1.326450
    62 17.511831 0.000000 0.000001 0.000000 0.000000 0.025253
    63 17.511827 0.000000 0.000000 0.000000 0.000000 0.025250
    64 5.351955 0.000000 0.000008 -0.126310 0.000000 0.000000
    65 10.703916 0.000003 0.000000 -0.238428 0.000000 0.000000
    66 10.622517 0.000002 0.000000 0.000000 0.000000 -0.161658
    67 10.703920 0.000001 -0.000004 0.242666 0.000000 0.000000
    68 5.351967 0.000001 0.000004 0.128616 0.000000 0.000000
    69 10.622509 0.000000 0.000000 0.000000 0.000000 -0.161657
    70 6.542702 -3.138619 -0.895109 -2.757489 0.670361 -3.025038
    71 6.555031 -3.255052 -0.507022 -1.921020 0.618427 -2.301585
    72 6.705544 -3.279106 -0.065398 -1.754147 0.162451 -2.474002
    73 6.626083 -3.270710 0.172545 -1.539075 -0.305492 -2.435733
    74 6.653976 -3.214913 0.408571 -1.286976 -0.553915 -2.575075
    75 6.579002 -3.260934 0.753884 -0.495113 -0.806181 -2.967121
    76 5.379463 1.359751 -4.068706 2.963808 0.292578 2.552074
    77 1.899147 -0.000008 -0.000002 0.000000 0.000001 0.000000
    78 1.899155 -0.000011 0.000011 0.000000 0.000000 -0.000001
    79 1.778336 0.000004 0.000008 0.000000 0.000000 0.000000
    80 1.484890 0.000004 0.000006 0.000000 0.000000 0.000000
    81 1.484890 0.000004 0.000008 0.000000 0.000000 0.000000
    82 5.344971 1.304967 -4.152735 3.010493 0.160723 2.777818
    83 1.844238 0.000025 -0.000004 0.000006 -0.000001 0.000036
    84 1.844231 -0.000046 0.000002 -0.000006 0.000002 -0.000037
    85 1.723396 0.000027 0.000004 0.000000 0.000000 0.000000
    86 1.429981 0.000021 0.000004 0.000003 -0.000001 0.000018
    87 1.429981 -0.000013 0.000004 0.000000 0.000000 0.000000
    88 5.379402 1.359731 4.068733 0.177777 -0.292572 2.552077
    89 1.899246 0.000065 -0.000015 0.000000 0.000001 0.000000
    90 1.898895 -0.000156 0.000122 0.000000 0.000000 0.000000
    91 1.778545 0.000179 -0.000076 0.000000 0.000002 0.000001
    92 1.484745 -0.000118 0.000061 0.000002 -0.000009 -0.000001
    93 1.485096 0.000114 -0.000051 0.000000 0.000002 0.000000
    94 5.344757 1.304946 4.152762 0.131098 -0.160750 2.777815
    95 1.844147 -0.000046 -0.000051 0.000000 -0.000001 0.000000
    96 1.844154 -0.000051 0.000004 -0.000002 0.000008 0.000000
    97 1.723389 -0.000034 -0.000059 0.000002 -0.000009 0.000000
    98 1.429787 -0.000090 -0.000011 -0.000005 0.000039 -0.000018
    99 1.430183 0.000105 0.000002 0.000000 0.000004 0.000000
    100 1.053982 6.461875 -0.000002 1.570796 -0.000001 -2.870607
    101 1.319767 5.505195 3.414021 0.979847 -0.000001 -2.870608
    102 2.433929 1.494850 5.525152 -0.153741 0.000005 -2.870608
    103 3.255917 -1.463856 2.975232 -1.232893 0.000000 -2.870608
    104 3.367542 -1.865640 -0.000005 -1.570796 0.000000 -2.870607
    105 1.319702 5.505181 -3.414023 2.161746 0.000000 -2.870607
    106 2.433857 1.494835 -5.525157 -2.987854 0.000010 -2.870605
    107 3.255852 -1.463873 -2.975239 -1.908698 -0.000001 -2.870607
end
