// Created by Crowbar 0.74
version 1
nodes
  0 "ValveBiped.Bip01_Pelvis" -1
  1 "ValveBiped.Bip01_Spine" 0
  2 "ValveBiped.Bip01_Spine1" 1
  3 "ValveBiped.Bip01_Spine2" 2
  4 "ValveBiped.Bip01_Spine4" 3
  5 "ValveBiped.Bip01_L_Clavicle" 4
  6 "ValveBiped.Bip01_L_UpperArm" 5
  7 "ValveBiped.Bip01_L_Forearm" 6
  8 "ValveBiped.Bip01_R_Clavicle" 4
  9 "ValveBiped.Bip01_R_UpperArm" 8
  10 "ValveBiped.Bip01_R_Forearm" 9
  11 "ValveBiped.Bip01_R_Hand" 10
  12 "ValveBiped.Bip01_R_Thigh" 0
  13 "ValveBiped.Bip01_Neck1" 4
  14 "ValveBiped.Bip01_Head1" 13
  15 "ValveBiped.Bip01_L_Hand" 7
  16 "ValveBiped.Bip01_L_Thigh" 0
  17 "ValveBiped.Bip01_L_Calf" 16
  18 "ValveBiped.Bip01_R_Calf" 12
  19 "ValveBiped.Bip01_L_Foot" 17
  20 "ValveBiped.Bip01_L_Finger3" 15
  21 "ValveBiped.Bip01_L_Finger31" 20
  22 "ValveBiped.Bip01_L_Finger2" 15
  23 "ValveBiped.Bip01_R_Finger0" 11
  24 "ValveBiped.Bip01_L_Finger4" 15
  25 "ValveBiped.Bip01_L_Finger41" 24
  26 "ValveBiped.Bip01_R_Finger1" 11
  27 "ValveBiped.Bip01_R_Finger2" 11
  28 "ValveBiped.Bip01_L_Finger0" 15
  29 "ValveBiped.Bip01_R_Finger3" 11
  30 "ValveBiped.Bip01_R_Finger31" 29
  31 "ValveBiped.Bip01_R_Foot" 18
  32 "ValveBiped.Bip01_R_Toe0" 31
  33 "ValveBiped.Bip01_L_Toe0" 19
  34 "ValveBiped.Bip01_L_Finger1" 15
  35 "ValveBiped.Bip01_R_Finger4" 11
  36 "ValveBiped.Bip01_R_Finger41" 35
  37 "ValveBiped.Bip01_R_Finger42" 36
  38 "ValveBiped.Bip01_L_Finger32" 21
  39 "ValveBiped.Bip01_L_Finger42" 25
  40 "ValveBiped.Bip01_R_Finger32" 30
  41 "ValveBiped.Bip01_R_Finger11" 26
  42 "ValveBiped.Bip01_R_Finger21" 27
  43 "ValveBiped.Bip01_R_Finger01" 23
  44 "ValveBiped.Bip01_L_Finger11" 34
  45 "ValveBiped.Bip01_L_Finger01" 28
  46 "ValveBiped.Bip01_L_Finger21" 22
  47 "ValveBiped.Bip01_R_Finger22" 42
  48 "ValveBiped.Bip01_R_Finger02" 43
  49 "ValveBiped.Bip01_R_Finger12" 41
  50 "ValveBiped.Bip01_L_Finger22" 46
  51 "ValveBiped.Bip01_L_Finger02" 45
  52 "ValveBiped.Bip01_L_Finger12" 44
  53 "ValveBiped.attachment_bandage_legL" 17
  54 "ValveBiped.attachment_bandage_armL" 7
  55 "ValveBiped.attachment_armL_T" 7
  56 "ValveBiped.attachment_armR_T" 10
  57 "ValveBiped.L_weapon_bone" 15
  58 "ValveBiped.weapon_bone" 11
  59 "ValveBiped.weapon_bone_Clip" 58
  60 "ValveBiped.weapon_bone_extra" 58
  61 "ValveBiped.forward" 14
  62 "ValveBiped.Bip01_L_Knee" 16
  63 "ValveBiped.Bip01_R_Knee" 12
  64 "ValveBiped.Bip01_L_Ulna" 7
  65 "ValveBiped.Bip01_L_Wrist" 7
  66 "ValveBiped.Bip01_L_Elbow" 6
  67 "ValveBiped.Bip01_R_Wrist" 10
  68 "ValveBiped.Bip01_R_Ulna" 10
  69 "ValveBiped.Bip01_R_Elbow" 9
  70 "dyn_hair_bangs_01" 14
  71 "dyn_hair_bangs_02" 14
  72 "dyn_hair_bangs_03" 14
  73 "dyn_hair_bangs_04" 14
  74 "dyn_hair_bangs_05" 14
  75 "dyn_hair_bangs_06" 14
  76 "dyn_hair_strap_bk_l_01" 14
  77 "dyn_hair_strap_bk_l_02" 76
  78 "dyn_hair_strap_bk_l_03" 77
  79 "dyn_hair_strap_bk_l_04" 78
  80 "dyn_hair_strap_bk_l_05" 79
  81 "dyn_hair_strap_bk_l_06" 80
  82 "dyn_hair_strap_fr_l_01" 14
  83 "dyn_hair_strap_fr_l_02" 82
  84 "dyn_hair_strap_fr_l_03" 83
  85 "dyn_hair_strap_fr_l_04" 84
  86 "dyn_hair_strap_fr_l_05" 85
  87 "dyn_hair_strap_fr_l_06" 86
  88 "dyn_hair_strap_bk_r_01" 14
  89 "dyn_hair_strap_bk_r_02" 88
  90 "dyn_hair_strap_bk_r_03" 89
  91 "dyn_hair_strap_bk_r_04" 90
  92 "dyn_hair_strap_bk_r_05" 91
  93 "dyn_hair_strap_bk_r_06" 92
  94 "dyn_hair_strap_fr_r_01" 14
  95 "dyn_hair_strap_fr_r_02" 94
  96 "dyn_hair_strap_fr_r_03" 95
  97 "dyn_hair_strap_fr_r_04" 96
  98 "dyn_hair_strap_fr_r_05" 97
  99 "dyn_hair_strap_fr_r_06" 98
  100 "dyn_shirt_fr" 3
  101 "dyn_shirt_fr_l" 3
  102 "dyn_shirt_l" 3
  103 "dyn_shirt_bk_l" 3
  104 "dyn_shirt_bk" 3
  105 "dyn_shirt_fr_r" 3
  106 "dyn_shirt_r" 3
  107 "dyn_shirt_bk_r" 3
end
skeleton
  time 0
    0 0.000000 0.458496 34.000000 1.570792 0.000003 -0.000003
    1 0.000000 3.589844 -0.015915 1.570796 0.083190 1.570796
    2 3.546875 -0.000001 0.000000 0.000000 0.000000 -0.171962
    3 3.283203 0.000000 0.000000 0.000000 0.000000 -0.015832
    4 5.058594 -0.000001 0.000000 0.000000 0.000001 0.495170
    5 3.609375 1.294922 1.331055 0.877508 -1.114834 -2.566259
    6 4.886719 0.000008 0.000000 -1.552793 -0.368229 -0.334669
    7 9.679688 0.000002 0.000000 0.006570 0.042041 -0.316404
    8 3.609375 1.294922 -1.331055 -0.952658 1.114834 -2.566258
    9 4.886719 0.000008 0.000002 1.603151 0.391103 -0.323618
    10 9.679688 0.000000 0.000000 -0.110798 -0.034535 -0.267096
    11 9.250000 -0.000006 0.000019 -1.433701 -0.073587 -0.012826
    12 -3.218750 0.000004 0.000000 -1.471122 0.058055 -1.622309
    13 4.750000 -0.000001 0.000000 3.141590 0.000000 0.250603
    14 3.960938 0.000000 0.000000 0.000000 -0.000001 0.463823
    15 9.250000 -0.000006 -0.000027 1.449848 0.155372 0.004111
    16 3.218750 -0.000004 0.000000 -1.670471 0.058055 -1.519283
    17 16.281250 0.000000 0.000000 0.000000 0.000000 0.000000
    18 16.281250 0.000000 0.000000 0.000000 0.000000 0.000000
    19 14.875000 0.000000 -0.000001 -0.077030 -0.068757 -1.299215
    20 2.779297 0.099548 -0.525391 0.287490 0.189927 -0.149903
    21 1.076172 0.070068 0.000000 -0.053582 -0.135865 -0.482019
    22 2.875000 -0.049500 0.167969 0.198190 0.117967 -0.248294
    23 0.403320 -0.924805 -0.583008 -1.681915 0.489620 -0.574220
    24 2.455078 0.198486 -1.226563 0.214064 0.234758 -0.232077
    25 0.755371 0.036285 0.000000 0.032384 -0.084881 -0.586331
    26 3.013672 -0.366211 -0.949219 -0.138183 -0.024855 -0.326590
    27 2.875000 -0.048889 -0.167480 -0.164473 -0.062868 -0.319509
    28 0.402588 -0.923828 0.563965 1.602831 -0.564727 -0.442610
    29 2.779297 0.097656 0.526367 -0.247706 -0.074087 -0.302366
    30 1.076172 0.070068 0.000000 0.051213 0.126740 -0.519075
    31 14.875000 0.000000 0.000000 0.088733 0.068757 -1.299215
    32 5.277344 0.000000 0.000000 -0.111841 0.023845 -0.336656
    33 5.277344 0.000000 0.000000 0.020295 -0.027709 -0.336371
    34 3.013672 -0.369629 0.948730 0.181496 0.034132 -0.201936
    35 2.455078 0.193970 1.226563 -0.197474 -0.142576 -0.239060
    36 0.783691 0.142578 0.000000 -0.021385 0.064214 -0.734524
    37 0.634766 0.000004 0.000000 0.054478 0.175350 -0.302858
    38 0.857910 -0.000002 0.000000 0.003730 -0.080337 -0.550361
    39 0.634766 0.000008 -0.000002 -0.018038 -0.227796 -0.547196
    40 0.857910 -0.000004 0.000000 0.010105 0.092065 -0.539225
    41 1.162109 -0.053284 0.000001 -0.051034 -0.062694 -0.680074
    42 1.316406 0.047180 -0.000001 0.037241 0.022337 -0.575488
    43 1.790039 0.000000 0.000002 0.113774 0.259394 -0.650674
    44 1.162109 -0.053284 0.000001 0.048981 0.058758 -0.691196
    45 1.742188 -0.000002 -0.000002 0.130493 -0.160082 -0.768003
    46 1.316406 0.047211 0.000000 -0.047823 -0.027351 -0.670803
    47 0.969238 0.107483 -0.000001 -0.005885 0.095300 -0.482120
    48 1.154297 -0.076965 0.000000 0.000019 0.040692 0.196327
    49 0.883301 0.000000 -0.000001 0.043403 0.034427 -0.491032
    50 0.969238 0.107483 0.000000 -0.006185 -0.029152 -0.290985
    51 1.154297 -0.111084 0.000002 0.013817 -0.119573 -0.208190
    52 0.882813 0.000000 0.000000 -0.095744 0.066492 -0.373904
    53 7.023273 -6.880002 4.339547 2.620672 -1.456011 -1.105365
    54 3.813801 -3.870654 0.998558 1.570796 -1.069638 0.199892
    55 0.000000 -0.000007 -0.000027 1.373047 0.113574 0.124314
    56 0.000002 -0.000007 -0.000031 1.373045 0.113569 0.124329
    57 3.348997 -1.371002 0.724998 1.977842 -0.088017 1.557794
    58 2.856895 -1.536198 -0.973800 -1.501147 -0.272558 -1.578261
    59 0.000000 0.000000 9.999996 0.000000 0.000000 0.000000
    60 0.018890 0.665159 9.395882 0.000000 0.000000 0.000000
    61 1.999992 -3.000000 0.000000 -1.570796 0.000000 -1.326450
    62 17.511831 0.000000 0.000001 0.000000 0.000000 0.025253
    63 17.511827 0.000000 0.000000 0.000000 0.000000 0.025250
    64 5.351955 0.000000 0.000008 -0.126310 0.000000 0.000000
    65 10.703916 0.000003 0.000000 -0.238428 0.000000 0.000000
    66 10.622517 0.000002 0.000000 0.000000 0.000000 -0.161658
    67 10.703920 0.000001 -0.000004 0.242666 0.000000 0.000000
    68 5.351967 0.000001 0.000004 0.128616 0.000000 0.000000
    69 10.622509 0.000000 0.000000 0.000000 0.000000 -0.161657
    70 6.542702 -3.138619 -0.895109 -2.757489 0.670361 -3.025038
    71 6.555031 -3.255052 -0.507022 -1.921020 0.618427 -2.301585
    72 6.705544 -3.279106 -0.065398 -1.754147 0.162451 -2.474002
    73 6.626083 -3.270710 0.172545 -1.539075 -0.305492 -2.435733
    74 6.653976 -3.214913 0.408571 -1.286976 -0.553915 -2.575075
    75 6.579002 -3.260934 0.753884 -0.495113 -0.806181 -2.967121
    76 5.379463 1.359751 -4.068706 2.963808 0.292578 2.552074
    77 1.899147 -0.000008 -0.000002 0.000000 0.000001 0.000000
    78 1.899155 -0.000011 0.000011 0.000000 0.000000 -0.000001
    79 1.778336 0.000004 0.000008 0.000000 0.000000 0.000000
    80 1.484890 0.000004 0.000006 0.000000 0.000000 0.000000
    81 1.484890 0.000004 0.000008 0.000000 0.000000 0.000000
    82 5.344971 1.304967 -4.152735 3.010493 0.160723 2.777818
    83 1.844238 0.000025 -0.000004 0.000006 -0.000001 0.000036
    84 1.844231 -0.000046 0.000002 -0.000006 0.000002 -0.000037
    85 1.723396 0.000027 0.000004 0.000000 0.000000 0.000000
    86 1.429981 0.000021 0.000004 0.000003 -0.000001 0.000018
    87 1.429981 -0.000013 0.000004 0.000000 0.000000 0.000000
    88 5.379402 1.359731 4.068733 0.177777 -0.292572 2.552077
    89 1.899246 0.000065 -0.000015 0.000000 0.000001 0.000000
    90 1.898895 -0.000156 0.000122 0.000000 0.000000 0.000000
    91 1.778545 0.000179 -0.000076 0.000000 0.000002 0.000001
    92 1.484745 -0.000118 0.000061 0.000002 -0.000009 -0.000001
    93 1.485096 0.000114 -0.000051 0.000000 0.000002 0.000000
    94 5.344757 1.304946 4.152762 0.131098 -0.160750 2.777815
    95 1.844147 -0.000046 -0.000051 0.000000 -0.000001 0.000000
    96 1.844154 -0.000051 0.000004 -0.000002 0.000008 0.000000
    97 1.723389 -0.000034 -0.000059 0.000002 -0.000009 0.000000
    98 1.429787 -0.000090 -0.000011 -0.000005 0.000039 -0.000018
    99 1.430183 0.000105 0.000002 0.000000 0.000004 0.000000
    100 1.053982 6.461875 -0.000002 1.570796 -0.000001 -2.870607
    101 1.319767 5.505195 3.414021 0.979847 -0.000001 -2.870608
    102 2.433929 1.494850 5.525152 -0.153741 0.000005 -2.870608
    103 3.255917 -1.463856 2.975232 -1.232893 0.000000 -2.870608
    104 3.367542 -1.865640 -0.000005 -1.570796 0.000000 -2.870607
    105 1.319702 5.505181 -3.414023 2.161746 0.000000 -2.870607
    106 2.433857 1.494835 -5.525157 -2.987854 0.000010 -2.870605
    107 3.255852 -1.463873 -2.975239 -1.908698 -0.000001 -2.870607
  time 1
    0 0.000000 0.458496 34.000000 1.570792 0.000003 -0.000003
    1 0.000000 3.589844 -0.015915 1.570796 0.083190 1.570796
    2 3.546875 -0.000001 0.000000 0.000000 0.000000 -0.171962
    3 3.283203 0.000000 0.000000 0.000000 0.000000 -0.015832
    4 5.058594 -0.000001 0.000000 0.000000 0.000001 0.495170
    5 3.609375 1.294922 1.331055 0.877508 -1.114834 -2.566259
    6 4.886719 0.000008 0.000000 -1.552793 -0.368229 -0.334669
    7 9.679688 0.000002 0.000000 0.006570 0.042041 -0.316404
    8 3.609375 1.294922 -1.331055 -0.952658 1.114834 -2.566258
    9 4.886719 0.000008 0.000002 1.603151 0.391103 -0.323618
    10 9.679688 0.000000 0.000000 -0.110798 -0.034535 -0.267096
    11 9.250000 -0.000006 0.000019 -1.433701 -0.073587 -0.012826
    12 -3.218750 0.000004 0.000000 -1.471122 0.058055 -1.622309
    13 4.750000 -0.000001 0.000000 3.141590 0.000000 0.250603
    14 3.960938 0.000000 0.000000 0.000000 -0.000001 0.463823
    15 9.250000 -0.000006 -0.000027 1.449848 0.155372 0.004111
    16 3.218750 -0.000004 0.000000 -1.670471 0.058055 -1.519283
    17 16.281250 0.000000 0.000000 0.000000 0.000000 0.000000
    18 16.281250 0.000000 0.000000 0.000000 0.000000 0.000000
    19 14.875000 0.000000 -0.000001 -0.077030 -0.068757 -1.299215
    20 2.779297 0.099548 -0.525391 0.287490 0.189927 -0.149903
    21 1.076172 0.070068 0.000000 -0.053582 -0.135865 -0.482019
    22 2.875000 -0.049500 0.167969 0.198190 0.117967 -0.248294
    23 0.403320 -0.924805 -0.583008 -1.681915 0.489620 -0.574220
    24 2.455078 0.198486 -1.226563 0.214064 0.234758 -0.232077
    25 0.755371 0.036285 0.000000 0.032384 -0.084881 -0.586331
    26 3.013672 -0.366211 -0.949219 -0.138183 -0.024855 -0.326590
    27 2.875000 -0.048889 -0.167480 -0.164473 -0.062868 -0.319509
    28 0.402588 -0.923828 0.563965 1.602831 -0.564727 -0.442610
    29 2.779297 0.097656 0.526367 -0.247706 -0.074087 -0.302366
    30 1.076172 0.070068 0.000000 0.051213 0.126740 -0.519075
    31 14.875000 0.000000 0.000000 0.088733 0.068757 -1.299215
    32 5.277344 0.000000 0.000000 -0.111841 0.023845 -0.336656
    33 5.277344 0.000000 0.000000 0.020295 -0.027709 -0.336371
    34 3.013672 -0.369629 0.948730 0.181496 0.034132 -0.201936
    35 2.455078 0.193970 1.226563 -0.197474 -0.142576 -0.239060
    36 0.783691 0.142578 0.000000 -0.021385 0.064214 -0.734524
    37 0.634766 0.000004 0.000000 0.054478 0.175350 -0.302858
    38 0.857910 -0.000002 0.000000 0.003730 -0.080337 -0.550361
    39 0.634766 0.000008 -0.000002 -0.018038 -0.227796 -0.547196
    40 0.857910 -0.000004 0.000000 0.010105 0.092065 -0.539225
    41 1.162109 -0.053284 0.000001 -0.051034 -0.062694 -0.680074
    42 1.316406 0.047180 -0.000001 0.037241 0.022337 -0.575488
    43 1.790039 0.000000 0.000002 0.113774 0.259394 -0.650674
    44 1.162109 -0.053284 0.000001 0.048981 0.058758 -0.691196
    45 1.742188 -0.000002 -0.000002 0.130493 -0.160082 -0.768003
    46 1.316406 0.047211 0.000000 -0.047823 -0.027351 -0.670803
    47 0.969238 0.107483 -0.000001 -0.005885 0.095300 -0.482120
    48 1.154297 -0.076965 0.000000 0.000019 0.040692 0.196327
    49 0.883301 0.000000 -0.000001 0.043403 0.034427 -0.491032
    50 0.969238 0.107483 0.000000 -0.006185 -0.029152 -0.290985
    51 1.154297 -0.111084 0.000002 0.013817 -0.119573 -0.208190
    52 0.882813 0.000000 0.000000 -0.095744 0.066492 -0.373904
    53 7.023273 -6.880002 4.339547 2.620672 -1.456011 -1.105365
    54 3.813801 -3.870654 0.998558 1.570796 -1.069638 0.199892
    55 0.000000 -0.000007 -0.000027 1.373047 0.113574 0.124314
    56 0.000002 -0.000007 -0.000031 1.373045 0.113569 0.124329
    57 3.348997 -1.371002 0.724998 1.977842 -0.088017 1.557794
    58 2.856895 -1.536198 -0.973800 -1.501147 -0.272558 -1.578261
    59 0.000000 0.000000 9.999996 0.000000 0.000000 0.000000
    60 0.018890 0.665159 9.395882 0.000000 0.000000 0.000000
    61 1.999992 -3.000000 0.000000 -1.570796 0.000000 -1.326450
    62 17.511831 0.000000 0.000001 0.000000 0.000000 0.025253
    63 17.511827 0.000000 0.000000 0.000000 0.000000 0.025250
    64 5.351955 0.000000 0.000008 -0.126310 0.000000 0.000000
    65 10.703916 0.000003 0.000000 -0.238428 0.000000 0.000000
    66 10.622517 0.000002 0.000000 0.000000 0.000000 -0.161658
    67 10.703920 0.000001 -0.000004 0.242666 0.000000 0.000000
    68 5.351967 0.000001 0.000004 0.128616 0.000000 0.000000
    69 10.622509 0.000000 0.000000 0.000000 0.000000 -0.161657
    70 6.542702 -3.138619 -0.895109 -2.757489 0.670361 -3.025038
    71 6.555031 -3.255052 -0.507022 -1.921020 0.618427 -2.301585
    72 6.705544 -3.279106 -0.065398 -1.754147 0.162451 -2.474002
    73 6.626083 -3.270710 0.172545 -1.539075 -0.305492 -2.435733
    74 6.653976 -3.214913 0.408571 -1.286976 -0.553915 -2.575075
    75 6.579002 -3.260934 0.753884 -0.495113 -0.806181 -2.967121
    76 5.379463 1.359751 -4.068706 2.963808 0.292578 2.552074
    77 1.899147 -0.000008 -0.000002 0.000000 0.000001 0.000000
    78 1.899155 -0.000011 0.000011 0.000000 0.000000 -0.000001
    79 1.778336 0.000004 0.000008 0.000000 0.000000 0.000000
    80 1.484890 0.000004 0.000006 0.000000 0.000000 0.000000
    81 1.484890 0.000004 0.000008 0.000000 0.000000 0.000000
    82 5.344971 1.304967 -4.152735 3.010493 0.160723 2.777818
    83 1.844238 0.000025 -0.000004 0.000006 -0.000001 0.000036
    84 1.844231 -0.000046 0.000002 -0.000006 0.000002 -0.000037
    85 1.723396 0.000027 0.000004 0.000000 0.000000 0.000000
    86 1.429981 0.000021 0.000004 0.000003 -0.000001 0.000018
    87 1.429981 -0.000013 0.000004 0.000000 0.000000 0.000000
    88 5.379402 1.359731 4.068733 0.177777 -0.292572 2.552077
    89 1.899246 0.000065 -0.000015 0.000000 0.000001 0.000000
    90 1.898895 -0.000156 0.000122 0.000000 0.000000 0.000000
    91 1.778545 0.000179 -0.000076 0.000000 0.000002 0.000001
    92 1.484745 -0.000118 0.000061 0.000002 -0.000009 -0.000001
    93 1.485096 0.000114 -0.000051 0.000000 0.000002 0.000000
    94 5.344757 1.304946 4.152762 0.131098 -0.160750 2.777815
    95 1.844147 -0.000046 -0.000051 0.000000 -0.000001 0.000000
    96 1.844154 -0.000051 0.000004 -0.000002 0.000008 0.000000
    97 1.723389 -0.000034 -0.000059 0.000002 -0.000009 0.000000
    98 1.429787 -0.000090 -0.000011 -0.000005 0.000039 -0.000018
    99 1.430183 0.000105 0.000002 0.000000 0.000004 0.000000
    100 1.053982 6.461875 -0.000002 1.570796 -0.000001 -2.870607
    101 1.319767 5.505195 3.414021 0.979847 -0.000001 -2.870608
    102 2.433929 1.494850 5.525152 -0.153741 0.000005 -2.870608
    103 3.255917 -1.463856 2.975232 -1.232893 0.000000 -2.870608
    104 3.367542 -1.865640 -0.000005 -1.570796 0.000000 -2.870607
    105 1.319702 5.505181 -3.414023 2.161746 0.000000 -2.870607
    106 2.433857 1.494835 -5.525157 -2.987854 0.000010 -2.870605
    107 3.255852 -1.463873 -2.975239 -1.908698 -0.000001 -2.870607
end
